<?xml version="1.0" encoding="utf-8"?>
<!-- Generator: Adobe Illustrator 16.0.0, SVG Export Plug-In . SVG Version: 6.00 Build 0)  -->
<!DOCTYPE svg PUBLIC "-//W3C//DTD SVG 1.1//EN" "http://www.w3.org/Graphics/SVG/1.1/DTD/svg11.dtd">
<svg version="1.1" id="Layer_1" xmlns="http://www.w3.org/2000/svg" xmlns:xlink="http://www.w3.org/1999/xlink" x="0px" y="0px"
	 width="100px" height="100px" viewBox="112.333 0 100 100" enable-background="new 112.333 0 100 100" xml:space="preserve">
<rect x="114.333" y="9.737" fill="none" stroke="#909090" stroke-width="1.25" stroke-miterlimit="10" width="96" height="80.525"/>
<line fill="none" stroke="#909090" stroke-width="1.25" stroke-miterlimit="10" x1="114.333" y1="24.001" x2="210.333" y2="24.001"/>
<line fill="none" stroke="#909090" stroke-width="1.25" stroke-miterlimit="10" x1="114.333" y1="90.262" x2="210.333" y2="90.262"/>
<circle fill="#909090" cx="121.604" cy="16.719" r="2.27"/>
<circle fill="#909090" cx="130.546" cy="16.719" r="2.27"/>
<circle fill="#909090" cx="139.49" cy="16.719" r="2.27"/>
<g>
	<g>
		<path fill="#909090" d="M183.56,40.467c-3.435-3.857-8.364-6.068-13.525-6.068v-2.381c5.84,0,11.418,2.502,15.303,6.866
			L183.56,40.467z"/>
	</g>
	<g>
		<g>
			<polygon fill="#909090" points="188.458,35.927 179.489,42.287 187.153,43.59 			"/>
		</g>
	</g>
</g>
<g>
	<g>
		<path fill="#909090" d="M142.245,73.828c3.435,3.857,8.364,6.068,13.525,6.068v2.381c-5.84,0-11.418-2.502-15.303-6.865
			L142.245,73.828z"/>
	</g>
	<g>
		<g>
			<polygon fill="#909090" points="137.347,78.367 146.315,72.008 138.651,70.705 			"/>
		</g>
	</g>
</g>
<circle fill="none" stroke="#909090" stroke-width="0.75" stroke-miterlimit="10" cx="162.333" cy="57.131" r="13.293"/>
</svg>
