<?xml version="1.0" encoding="utf-8"?>
<!-- Generator: Adobe Illustrator 16.0.0, SVG Export Plug-In . SVG Version: 6.00 Build 0)  -->
<!DOCTYPE svg PUBLIC "-//W3C//DTD SVG 1.1//EN" "http://www.w3.org/Graphics/SVG/1.1/DTD/svg11.dtd">
<svg version="1.1" id="Layer_1" xmlns="http://www.w3.org/2000/svg" xmlns:xlink="http://www.w3.org/1999/xlink" x="0px" y="0px"
	 width="100px" height="100px" viewBox="0 0 100 100" enable-background="new 0 0 100 100" xml:space="preserve">
<g>
	<rect x="2" y="9.737" fill="none" stroke="#909090" stroke-width="1.25" stroke-miterlimit="10" width="96" height="80.525"/>
	<line fill="none" stroke="#909090" stroke-width="1.25" stroke-miterlimit="10" x1="2" y1="24.002" x2="98" y2="24.002"/>
	<circle fill="#909090" cx="9.271" cy="16.72" r="2.27"/>
	<circle fill="#909090" cx="18.213" cy="16.72" r="2.27"/>
	<circle fill="#909090" cx="27.157" cy="16.72" r="2.27"/>
</g>
<g>
	<path fill="#909090" d="M39.575,38.42c-2.065,0-3.745,1.68-3.745,3.744c0,2.065,1.68,3.746,3.745,3.746s3.746-1.681,3.746-3.746
		C43.321,40.1,41.641,38.42,39.575,38.42z M39.575,44.66c-1.376,0-2.495-1.119-2.495-2.496c0-1.375,1.119-2.494,2.495-2.494
		s2.496,1.119,2.496,2.494C42.071,43.541,40.951,44.66,39.575,44.66z"/>
	<path fill="#909090" d="M73.664,75.331c0.022-0.26-0.111-0.507-0.343-0.629l-4.562-2.396V32.179h-41.25v41.188h32.279l1.453,9.907
		c0.035,0.262,0.224,0.472,0.477,0.535c0.248,0.065,0.522-0.028,0.68-0.232l2.86-3.747l4.642,6.536
		c0.119,0.174,0.319,0.277,0.534,0.277h0.011c0.129-0.003,0.254-0.044,0.361-0.119l2.422-1.722c0.143-0.1,0.239-0.254,0.268-0.42
		c0.029-0.166-0.012-0.342-0.111-0.485l-4.644-6.541l4.479-1.465C73.47,75.811,73.645,75.59,73.664,75.331z M28.759,33.429h38.75
		v30.272h-4.486l-6.22-16.556c-0.082-0.22-0.28-0.374-0.514-0.401c-0.231-0.021-0.461,0.079-0.591,0.274L47.84,58.804l-4.663-5.598
		c-0.129-0.155-0.32-0.241-0.529-0.223c-0.201,0.016-0.384,0.128-0.487,0.302l-6.235,10.416h-7.166V33.429z M61.688,63.701H37.381
		l5.399-9.018l4.635,5.563c0.126,0.151,0.323,0.232,0.514,0.224c0.197-0.01,0.377-0.113,0.486-0.277l7.646-11.467L61.688,63.701z
		 M59.321,67.75c-0.203,0.146-0.304,0.386-0.266,0.623l0.549,3.744H28.759v-7.166h38.75v6.698l-7.511-3.944
		C59.787,67.593,59.519,67.609,59.321,67.75z M67.5,76.396c-0.194,0.064-0.35,0.219-0.415,0.413
		c-0.064,0.196-0.033,0.407,0.087,0.58l4.778,6.73l-1.367,0.97l-4.777-6.729c-0.121-0.169-0.315-0.271-0.52-0.274l0.003-0.005
		l-0.025,0.006c-0.199,0.005-0.383,0.097-0.503,0.254l-2.46,3.225l-1.203-8.198l-0.184-1.25l-0.392-2.672l5.088,2.672l2.38,1.25
		l3.367,1.769L67.5,76.396z"/>
</g>
</svg>
